#!OML:ASF H:\Punching\Project 1\Capture day 1\Session 1\female.ASF
:FULLY-SPECIFIED
:DEGREES
1328
root 0.512775 15.5655 8.05214 19.0633 9.06079 -0.0406402
lowerback 3.88487 0.194915 1.04686
upperback -4.35275 0.3866 0.762057
thorax -6.71042 0.162554 0.170337
lowerneck -12.9978 1.15969 8.42487
upperneck 14.5913 0.60503 -4.23945
head 6.6263 0.401695 -2.69095
rclavicle 3.01159e-014 0
rhumerus -29.1379 26.9843 -83.4992
rradius 64.7581
rwrist -13.9121
rhand -8.76829 -10.4243
rfingers 7.12502
rthumb 17.1695 -39.6858
lclavicle 3.01159e-014 0
lhumerus -23.2009 -40.7199 88.509
lradius 93.1611
lwrist 1.41982
lhand -11.7765 10.8526
lfingers 7.12502
lthumb 14.2724 40.3421
rfemur -38.7983 3.98658 -1.67481
rtibia 23.8947
rfoot 7.81732 -26.4564
rtoes -1.55817
lfemur -14.1972 -8.93683 -8.72246
ltibia 15.1148
lfoot -15.5251 16.971
ltoes -15.2101
1329
root 0.619958 15.585 7.99601 18.9392 8.58354 -0.0533527
lowerback 3.63446 0.204137 0.896265
upperback -4.42031 0.386925 0.786705
thorax -6.63832 0.170983 0.281257
lowerneck -12.8598 1.2554 8.58515
upperneck 14.9166 0.725321 -4.27365
head 6.71616 0.472464 -2.72046
rclavicle 2.88238e-015 1.11319e-014
rhumerus -30.1515 26.4531 -83.9009
rradius 64.8727
rwrist -13.0894
rhand -8.39791 -10.1704
rfingers 7.12502
rthumb 17.5259 -39.4004
lclavicle 2.88238e-015 1.11319e-014
lhumerus -24.1184 -40.3095 88.7647
lradius 91.5275
lwrist 0.645585
lhand -11.5514 10.7021
lfingers 7.12502
lthumb 14.4893 40.1762
rfemur -38.3209 5.16999 -2.39025
rtibia 23.0208
rfoot 7.27405 -27.5595
rtoes -0.541764
lfemur -14.1754 -8.83033 -9.2994
ltibia 15.2758
lfoot -15.5822 17.1066
ltoes -14.7014
1330
root 0.721188 15.6017 7.94122 18.7933 8.17004 -0.0562534
lowerback 3.42114 0.200059 0.745513
upperback -4.48161 0.370367 0.809194
thorax -6.58106 0.170928 0.391404
lowerneck -12.7306 1.33922 8.72188
upperneck 15.237 0.829376 -4.28237
head 6.80511 0.536317 -2.73931
rclavicle 1.1281e-014 5.96354e-015
rhumerus -31.1563 25.8855 -84.3037
rradius 64.941
rwrist -12.2486
rhand -8.07473 -9.90061
rfingers 7.12502
rthumb 17.8369 -39.1026
lclavicle 1.1281e-014 5.96354e-015
lhumerus -25.0246 -39.9654 89.028
lradius 89.9067
lwrist 0.125476
lhand -11.3366 10.682
lfingers 7.12502
lthumb 14.6962 40.1412
rfemur -37.8511 6.09881 -2.87999
rtibia 22.4387
rfoot 6.37391 -28.127
rtoes -0.0682861
lfemur -14.2048 -8.76355 -9.84697
ltibia 15.5384
lfoot -15.6779 17.2462
ltoes -14.1772
1331
root 0.816873 15.6164 7.88731 18.6348 7.82287 -0.0631677
lowerback 3.23124 0.179684 0.607723
upperback -4.53579 0.333868 0.837296
thorax -6.52965 0.160475 0.501729
lowerneck -12.6247 1.41763 8.84195
upperneck 15.5589 0.925883 -4.28171
head 6.89828 0.596399 -2.75315
rclavicle -2.23633e-015 -3.97569e-015
rhumerus -32.1467 25.2928 -84.7041
rradius 64.9615
rwrist -11.4274
rhand -7.82539 -9.60071
rfingers 7.12502
rthumb 18.0768 -38.7807
lclavicle -2.23633e-015 -3.97569e-015
lhumerus -25.9121 -39.6669 89.2985
lradius 88.3141
lwrist -0.0698303
lhand -11.1348 10.7556
lfingers 7.12502
lthumb 14.8906 40.2004
rfemur -37.3876 6.69568 -3.08513
rtibia 22.1386
rfoot 5.31599 -28.0712
rtoes -0.131205
lfemur -14.2854 -8.74793 -10.3462
ltibia 15.8748
lfoot -15.7925 17.3938
ltoes -13.6449
